<svg width="39" height="32" viewBox="0 0 39 32" fill="none" xmlns="http://www.w3.org/2000/svg">
<path d="M37.8353 20.1024L31.6449 3.64L31.6417 3.6304L31.6401 3.6288C30.8241 1.4576 28.7169 0 26.3985 0C24.0801 0 21.9729 1.4576 21.1553 3.6304C20.9188 4.2601 20.7979 4.92734 20.7985 5.6V12.8H17.5985V5.6C17.5985 2.512 15.0865 0 11.9985 0C10.86 0.00382727 9.74931 0.352859 8.8132 1.00102C7.8771 1.64917 7.15958 2.56598 6.75535 3.6304L6.75215 3.64L0.561748 20.0976L0.560148 20.0992C0.0610594 21.4311 -0.108112 22.8641 0.0670929 24.2756C0.242298 25.6871 0.756669 27.0352 1.56624 28.2047C2.37582 29.3741 3.45652 30.3302 4.71598 30.9911C5.97544 31.6521 7.3762 31.9982 8.79855 32C13.6497 32 17.5985 28.0528 17.5985 23.2V22.4H20.7985V23.2C20.7985 28.0528 24.7473 32 29.5985 32C34.4497 32 38.3985 28.0528 38.3985 23.2C38.3985 22.1344 38.2097 21.0928 37.8353 20.1024ZM8.79855 28.8C7.89364 28.7988 7.00248 28.5785 6.20119 28.1581C5.3999 27.7376 4.71229 27.1294 4.1971 26.3855C3.68191 25.6416 3.35445 24.784 3.2427 23.886C3.13095 22.988 3.23822 22.0763 3.55535 21.2288C3.95983 20.1647 4.67747 19.2482 5.61355 18.6004C6.54963 17.9525 7.66015 17.6037 8.79855 17.6C11.8865 17.6 14.3985 20.112 14.3985 23.2C14.3985 26.288 11.8865 28.8 8.79855 28.8ZM29.5985 28.8C26.5105 28.8 23.9985 26.288 23.9985 23.2C23.9985 20.112 26.5105 17.6 29.5985 17.6C31.9185 17.6 34.0257 19.0592 34.8417 21.2288C35.1589 22.0763 35.2661 22.988 35.1544 23.886C35.0426 24.784 34.7152 25.6416 34.2 26.3855C33.6848 27.1294 32.9972 27.7376 32.1959 28.1581C31.3946 28.5785 30.5035 28.7988 29.5985 28.8Z" fill="#1873B5"/>
</svg>
