<svg width="206" height="102" viewBox="0 0 206 102" fill="none" xmlns="http://www.w3.org/2000/svg">
<path d="M0 8C0 3.58172 3.58172 0 8 0H206V101.689H8C3.58172 101.689 0 98.1075 0 93.6892V8Z" fill="#FDECCC"/>
<rect x="32.9301" y="24.4339" width="4.89963" height="10.9522" rx="2.44981" transform="rotate(46.5221 32.9301 24.4339)" fill="#48CAED"/>
<rect x="23.9474" y="26.2789" width="4.89963" height="10.9522" rx="2.44981" transform="rotate(46.5221 23.9474 26.2789)" fill="#FF9D00"/>
<path d="M29.5147 34.3805C27.5619 36.2079 24.4974 36.1062 22.67 34.1534C20.8427 32.2006 20.9443 29.1362 22.8971 27.3088C24.8499 25.4814 27.9144 25.5831 29.7417 27.5359C31.5691 29.4887 31.4674 32.5531 29.5147 34.3805Z" fill="#2A8BEA"/>
<path d="M22.8971 27.3088C20.9443 29.1362 20.8427 32.2006 22.67 34.1534L26.2059 30.8447L29.7417 27.5359C27.9144 25.5831 24.8499 25.4814 22.8971 27.3088Z" fill="#F73C5C"/>
<path d="M41.8467 34.362C41.351 34.362 40.916 34.2765 40.5417 34.1053C40.1674 33.9342 39.8765 33.691 39.6692 33.3757C39.4618 33.056 39.3581 32.6889 39.3581 32.2746V29.5454C39.3581 29.4823 39.3783 29.4328 39.4188 29.3968C39.4592 29.3607 39.5149 29.3427 39.5857 29.3427H40.3293C40.4001 29.3427 40.4557 29.3607 40.4962 29.3968C40.5366 29.4328 40.5569 29.4823 40.5569 29.5454V32.2746C40.5569 32.5448 40.6226 32.77 40.7541 32.9501C40.8857 33.1303 41.0576 33.2586 41.2701 33.3352C41.4522 33.4073 41.6444 33.4433 41.8467 33.4433C42.049 33.4433 42.2463 33.405 42.4385 33.3284C42.6307 33.2519 42.7901 33.1303 42.9165 32.9636C43.0531 32.7925 43.1214 32.5628 43.1214 32.2746V29.5454C43.1214 29.4823 43.1416 29.4328 43.1821 29.3968C43.2225 29.3607 43.2782 29.3427 43.349 29.3427H44.0925C44.1634 29.3427 44.219 29.3607 44.2595 29.3968C44.2999 29.4328 44.3202 29.4823 44.3202 29.5454V32.2746C44.3202 32.6934 44.219 33.0605 44.0167 33.3757C43.8143 33.691 43.526 33.9342 43.1517 34.1053C42.7774 34.2765 42.3424 34.362 41.8467 34.362Z" fill="black"/>
<path d="M45.2558 29.5927C45.2153 29.5431 45.1951 29.5004 45.1951 29.4643C45.1951 29.4283 45.2128 29.399 45.2482 29.3765C45.2836 29.354 45.3316 29.3427 45.3923 29.3427H46.3711C46.4925 29.3427 46.5861 29.3833 46.6518 29.4643L47.9796 31.0451L49.3074 29.4643C49.3782 29.3833 49.4718 29.3427 49.5881 29.3427H50.5593C50.62 29.3427 50.6655 29.354 50.6959 29.3765C50.7313 29.399 50.749 29.4283 50.749 29.4643C50.749 29.5004 50.7287 29.5431 50.6883 29.5927L48.7307 31.8287L50.6503 34.0243C50.6908 34.0738 50.711 34.1166 50.711 34.1526C50.711 34.1886 50.6933 34.2179 50.6579 34.2404C50.6276 34.2629 50.582 34.2742 50.5213 34.2742H49.5426C49.4262 34.2742 49.3327 34.2337 49.2619 34.1526L47.9796 32.6326L46.6974 34.1526C46.6316 34.2337 46.538 34.2742 46.4166 34.2742H45.4379C45.3772 34.2742 45.3291 34.2629 45.2937 34.2404C45.2583 34.2179 45.2406 34.1886 45.2406 34.1526C45.2406 34.1166 45.2608 34.0738 45.3013 34.0243L47.2285 31.8287L45.2558 29.5927Z" fill="black"/>
<path d="M55.2878 32.7745C55.3485 32.7024 55.4142 32.6664 55.485 32.6664C55.5204 32.6664 55.5558 32.6732 55.5912 32.6867L56.2817 32.9231C56.3829 32.9591 56.4334 33.0109 56.4334 33.0785C56.4334 33.1145 56.4183 33.1528 56.3879 33.1933C56.1097 33.5671 55.7506 33.8576 55.3105 34.0648C54.8705 34.2674 54.395 34.3688 53.8841 34.3688C53.3479 34.3688 52.8497 34.2562 52.3894 34.031C51.9342 33.8013 51.57 33.4883 51.2968 33.092C51.0288 32.6957 50.8947 32.2678 50.8947 31.8085C50.8947 31.3536 51.0288 30.9303 51.2968 30.5384C51.5649 30.1421 51.9291 29.8291 52.3894 29.5994C52.8447 29.3697 53.3429 29.2549 53.8841 29.2549C54.3798 29.2549 54.8477 29.3585 55.2878 29.5657C55.7329 29.7728 56.0971 30.0566 56.3803 30.4168C56.4107 30.4574 56.4258 30.4957 56.4258 30.5317C56.4258 30.5992 56.3778 30.651 56.2817 30.6871L55.5912 30.9235C55.5558 30.937 55.5179 30.9438 55.4774 30.9438C55.4016 30.9438 55.3358 30.9122 55.2802 30.8492C55.0981 30.6555 54.8831 30.5024 54.6353 30.3898C54.3925 30.2772 54.1421 30.2209 53.8841 30.2209C53.5654 30.2209 53.2695 30.293 52.9964 30.4371C52.7233 30.5812 52.5058 30.7771 52.3439 31.0248C52.182 31.2725 52.1011 31.5337 52.1011 31.8085C52.1011 32.0877 52.1795 32.3512 52.3363 32.5989C52.4982 32.842 52.7157 33.0357 52.9888 33.1798C53.262 33.3284 53.5604 33.4027 53.8841 33.4027C54.1522 33.4027 54.4102 33.3487 54.658 33.2406C54.9109 33.128 55.1208 32.9727 55.2878 32.7745Z" fill="black"/>
<path d="M60.0419 34.3688C59.5057 34.3688 59.01 34.2539 58.5548 34.0243C58.0996 33.7946 57.7354 33.4816 57.4622 33.0852C57.1941 32.6889 57.0601 32.2611 57.0601 31.8017C57.0601 31.3468 57.1916 30.9212 57.4546 30.5249C57.7227 30.1286 58.0869 29.8156 58.5472 29.5859C59.0024 29.3562 59.5007 29.2414 60.0419 29.2414C60.5831 29.2414 61.0814 29.3562 61.5366 29.5859C61.9969 29.8111 62.3636 30.1219 62.6368 30.5182C62.9048 30.919 63.0389 31.3468 63.0389 31.8017C63.0389 32.2611 62.9048 32.6889 62.6368 33.0852C62.3687 33.4816 62.0045 33.7946 61.5442 34.0243C61.0839 34.2539 60.5831 34.3688 60.0419 34.3688ZM60.0419 30.2142C59.7232 30.2142 59.4273 30.2862 59.1542 30.4304C58.881 30.5745 58.661 30.7704 58.4941 31.0181C58.3322 31.2658 58.2513 31.527 58.2513 31.8017C58.2513 32.0809 58.3322 32.3444 58.4941 32.5921C58.656 32.8353 58.8735 33.0312 59.1466 33.1798C59.4197 33.3284 59.7182 33.4027 60.0419 33.4027C60.3606 33.4027 60.659 33.3284 60.9372 33.1798C61.2154 33.0312 61.4354 32.833 61.5973 32.5853C61.7541 32.3466 61.8325 32.0854 61.8325 31.8017C61.8325 31.5225 61.7516 31.2613 61.5897 31.0181C61.4329 30.7749 61.2179 30.579 60.9448 30.4304C60.6615 30.2862 60.3606 30.2142 60.0419 30.2142Z" fill="black"/>
<path d="M68.322 29.3427C68.4535 29.3427 68.5193 29.3878 68.5193 29.4778C68.5193 29.5094 68.5092 29.5431 68.4889 29.5792L65.9624 34.1188C65.9269 34.1909 65.8764 34.2269 65.8106 34.2269C65.755 34.2269 65.7044 34.1909 65.6589 34.1188L63.1475 29.5792C63.1272 29.5431 63.1171 29.5094 63.1171 29.4778C63.1171 29.3878 63.1829 29.3427 63.3144 29.3427H64.1414C64.2729 29.3427 64.364 29.3923 64.4145 29.4913L65.8106 32.0719L67.2143 29.4913C67.2648 29.3923 67.3559 29.3427 67.4874 29.3427H68.322Z" fill="black"/>
<path d="M70.4464 31.3626H72.8744C72.9452 31.3626 73.0008 31.3806 73.0413 31.4166C73.0818 31.4527 73.102 31.5022 73.102 31.5653V32.0922C73.102 32.1552 73.0818 32.2048 73.0413 32.2408C73.0008 32.2768 72.9452 32.2949 72.8744 32.2949H70.4464V33.3487H73.2234C73.2942 33.3487 73.3498 33.3667 73.3903 33.4027C73.4308 33.4388 73.451 33.4883 73.451 33.5514V34.0715C73.451 34.1346 73.4308 34.1841 73.3903 34.2202C73.3498 34.2562 73.2942 34.2742 73.2234 34.2742H69.4753C69.4044 34.2742 69.3488 34.2562 69.3083 34.2202C69.2679 34.1841 69.2476 34.1346 69.2476 34.0715V29.5386C69.2476 29.4756 69.2679 29.426 69.3083 29.39C69.3488 29.354 69.4044 29.336 69.4753 29.336H73.2234C73.2942 29.336 73.3498 29.354 73.3903 29.39C73.4308 29.426 73.451 29.4756 73.451 29.5386V30.0588C73.451 30.1219 73.4308 30.1714 73.3903 30.2074C73.3498 30.2435 73.2942 30.2615 73.2234 30.2615H70.4464V31.3626Z" fill="black"/>
<path d="M75.759 34.0715C75.759 34.1346 75.7388 34.1841 75.6983 34.2202C75.6579 34.2562 75.6022 34.2742 75.5314 34.2742H74.7954C74.7246 34.2742 74.669 34.2562 74.6285 34.2202C74.588 34.1841 74.5678 34.1346 74.5678 34.0715V29.5386C74.5678 29.4756 74.588 29.426 74.6285 29.39C74.669 29.354 74.7246 29.336 74.7954 29.336H77.0337C77.4282 29.336 77.7772 29.408 78.0807 29.5521C78.3842 29.6963 78.6194 29.8989 78.7863 30.1601C78.9533 30.4213 79.0367 30.7186 79.0367 31.0519C79.0367 31.4076 78.9356 31.7251 78.7332 32.0044C78.5309 32.2836 78.2552 32.4885 77.9062 32.6191L78.1187 32.8623C78.2148 32.9704 78.3438 33.119 78.5056 33.3082C78.6675 33.4928 78.8723 33.7315 79.1202 34.0243C79.1606 34.0648 79.1809 34.1076 79.1809 34.1526C79.1809 34.1886 79.1632 34.2179 79.1278 34.2404C79.0974 34.2629 79.0519 34.2742 78.9912 34.2742H78.0807C77.9644 34.2742 77.8708 34.2359 77.8 34.1594C77.4156 33.7225 77.0084 33.2474 76.5784 32.734H75.759V34.0715ZM77.0337 31.8085C77.2562 31.8085 77.4459 31.7409 77.6027 31.6058C77.7646 31.4662 77.8455 31.2815 77.8455 31.0519C77.8455 30.8312 77.7798 30.6443 77.6483 30.4912C77.5218 30.338 77.3169 30.2615 77.0337 30.2615H75.759V31.8085H77.0337Z" fill="black"/>
<path d="M84.3388 29.3427C84.3995 29.3427 84.4475 29.354 84.4829 29.3765C84.5183 29.399 84.536 29.4305 84.536 29.4711C84.536 29.5071 84.5208 29.5454 84.4905 29.5859L82.4647 32.4029V34.0715C82.4647 34.1346 82.4445 34.1841 82.404 34.2202C82.3635 34.2562 82.3079 34.2742 82.2371 34.2742H81.4935C81.4227 34.2742 81.3671 34.2562 81.3266 34.2202C81.2861 34.1841 81.2659 34.1346 81.2659 34.0715V32.4029L79.2553 29.5859C79.2249 29.5454 79.2097 29.5071 79.2097 29.4711C79.2097 29.4305 79.2275 29.399 79.2629 29.3765C79.2983 29.354 79.3463 29.3427 79.407 29.3427H80.3023C80.4288 29.3427 80.5198 29.3878 80.5755 29.4778L81.8653 31.3356L83.1703 29.4778C83.2259 29.3878 83.317 29.3427 83.4435 29.3427H84.3388Z" fill="black"/>
<path d="M64.2995 72.8892C63.2328 72.8892 62.2395 72.7159 61.3195 72.3692C60.4128 72.0092 59.6195 71.5092 58.9395 70.8692C58.2728 70.2159 57.7528 69.4492 57.3795 68.5692C57.0061 67.6892 56.8195 66.7292 56.8195 65.6892C56.8195 64.6492 57.0061 63.6892 57.3795 62.8092C57.7528 61.9292 58.2795 61.1692 58.9595 60.5292C59.6395 59.8759 60.4328 59.3759 61.3395 59.0292C62.2461 58.6692 63.2395 58.4892 64.3195 58.4892C65.4661 58.4892 66.5128 58.6892 67.4595 59.0892C68.4061 59.4759 69.2061 60.0559 69.8595 60.8292L68.1795 62.4092C67.6728 61.8625 67.1061 61.4559 66.4795 61.1892C65.8528 60.9092 65.1728 60.7692 64.4395 60.7692C63.7061 60.7692 63.0328 60.8892 62.4195 61.1292C61.8195 61.3692 61.2928 61.7092 60.8395 62.1492C60.3995 62.5892 60.0528 63.1092 59.7995 63.7092C59.5595 64.3092 59.4395 64.9692 59.4395 65.6892C59.4395 66.4092 59.5595 67.0692 59.7995 67.6692C60.0528 68.2692 60.3995 68.7892 60.8395 69.2292C61.2928 69.6692 61.8195 70.0092 62.4195 70.2492C63.0328 70.4892 63.7061 70.6092 64.4395 70.6092C65.1728 70.6092 65.8528 70.4759 66.4795 70.2092C67.1061 69.9292 67.6728 69.5092 68.1795 68.9492L69.8595 70.5492C69.2061 71.3092 68.4061 71.8892 67.4595 72.2892C66.5128 72.6892 65.4595 72.8892 64.2995 72.8892ZM76.5005 72.8292C75.4072 72.8292 74.4339 72.5959 73.5805 72.1292C72.7272 71.6492 72.0539 70.9959 71.5605 70.1692C71.0672 69.3425 70.8205 68.4025 70.8205 67.3492C70.8205 66.2825 71.0672 65.3425 71.5605 64.5292C72.0539 63.7025 72.7272 63.0559 73.5805 62.5892C74.4339 62.1225 75.4072 61.8892 76.5005 61.8892C77.6072 61.8892 78.5872 62.1225 79.4405 62.5892C80.3072 63.0559 80.9805 63.6959 81.4605 64.5092C81.9539 65.3225 82.2005 66.2692 82.2005 67.3492C82.2005 68.4025 81.9539 69.3425 81.4605 70.1692C80.9805 70.9959 80.3072 71.6492 79.4405 72.1292C78.5872 72.5959 77.6072 72.8292 76.5005 72.8292ZM76.5005 70.6892C77.1139 70.6892 77.6605 70.5559 78.1405 70.2892C78.6205 70.0225 78.9939 69.6359 79.2605 69.1292C79.5405 68.6225 79.6805 68.0292 79.6805 67.3492C79.6805 66.6559 79.5405 66.0625 79.2605 65.5692C78.9939 65.0625 78.6205 64.6759 78.1405 64.4092C77.6605 64.1425 77.1205 64.0092 76.5205 64.0092C75.9072 64.0092 75.3605 64.1425 74.8805 64.4092C74.4139 64.6759 74.0405 65.0625 73.7605 65.5692C73.4805 66.0625 73.3405 66.6559 73.3405 67.3492C73.3405 68.0292 73.4805 68.6225 73.7605 69.1292C74.0405 69.6359 74.4139 70.0225 74.8805 70.2892C75.3605 70.5559 75.9005 70.6892 76.5005 70.6892ZM90.6512 61.8892C91.5045 61.8892 92.2645 62.0559 92.9312 62.3892C93.6112 62.7225 94.1445 63.2359 94.5312 63.9292C94.9178 64.6092 95.1112 65.4892 95.1112 66.5692V72.6892H92.6112V66.8892C92.6112 65.9425 92.3845 65.2359 91.9312 64.7692C91.4912 64.3025 90.8712 64.0692 90.0712 64.0692C89.4845 64.0692 88.9645 64.1892 88.5112 64.4292C88.0578 64.6692 87.7045 65.0292 87.4512 65.5092C87.2112 65.9759 87.0912 66.5692 87.0912 67.2892V72.6892H84.5912V62.0092H86.9712V64.8892L86.5512 64.0092C86.9245 63.3292 87.4645 62.8092 88.1712 62.4492C88.8912 62.0759 89.7178 61.8892 90.6512 61.8892ZM102.303 72.8292C101.129 72.8292 100.223 72.5292 99.5826 71.9292C98.9426 71.3159 98.6226 70.4159 98.6226 69.2292V59.6492H101.123V69.1692C101.123 69.6759 101.249 70.0692 101.503 70.3492C101.769 70.6292 102.136 70.7692 102.603 70.7692C103.163 70.7692 103.629 70.6225 104.003 70.3292L104.703 72.1092C104.409 72.3492 104.049 72.5292 103.623 72.6492C103.196 72.7692 102.756 72.8292 102.303 72.8292ZM96.8626 64.0892V62.0892H103.983V64.0892H96.8626ZM113.339 72.6892V70.5292L113.199 70.0692V66.2892C113.199 65.5559 112.979 64.9892 112.539 64.5892C112.099 64.1759 111.432 63.9692 110.539 63.9692C109.939 63.9692 109.346 64.0625 108.759 64.2492C108.186 64.4359 107.699 64.6959 107.299 65.0292L106.319 63.2092C106.892 62.7692 107.572 62.4425 108.359 62.2292C109.159 62.0025 109.986 61.8892 110.839 61.8892C112.386 61.8892 113.579 62.2625 114.419 63.0092C115.272 63.7425 115.699 64.8825 115.699 66.4292V72.6892H113.339ZM109.979 72.8292C109.179 72.8292 108.479 72.6959 107.879 72.4292C107.279 72.1492 106.812 71.7692 106.479 71.2892C106.159 70.7959 105.999 70.2425 105.999 69.6292C105.999 69.0292 106.139 68.4892 106.419 68.0092C106.712 67.5292 107.186 67.1492 107.839 66.8692C108.492 66.5892 109.359 66.4492 110.439 66.4492H113.539V68.1092H110.619C109.766 68.1092 109.192 68.2492 108.899 68.5292C108.606 68.7959 108.459 69.1292 108.459 69.5292C108.459 69.9825 108.639 70.3425 108.999 70.6092C109.359 70.8759 109.859 71.0092 110.499 71.0092C111.112 71.0092 111.659 70.8692 112.139 70.5892C112.632 70.3092 112.986 69.8959 113.199 69.3492L113.619 70.8492C113.379 71.4759 112.946 71.9625 112.319 72.3092C111.706 72.6559 110.926 72.8292 109.979 72.8292ZM123.827 72.8292C122.707 72.8292 121.707 72.5959 120.827 72.1292C119.96 71.6492 119.28 70.9959 118.787 70.1692C118.294 69.3425 118.047 68.4025 118.047 67.3492C118.047 66.2825 118.294 65.3425 118.787 64.5292C119.28 63.7025 119.96 63.0559 120.827 62.5892C121.707 62.1225 122.707 61.8892 123.827 61.8892C124.867 61.8892 125.78 62.1025 126.567 62.5292C127.367 62.9425 127.974 63.5559 128.387 64.3692L126.467 65.4892C126.147 64.9825 125.754 64.6092 125.287 64.3692C124.834 64.1292 124.34 64.0092 123.807 64.0092C123.194 64.0092 122.64 64.1425 122.147 64.4092C121.654 64.6759 121.267 65.0625 120.987 65.5692C120.707 66.0625 120.567 66.6559 120.567 67.3492C120.567 68.0425 120.707 68.6425 120.987 69.1492C121.267 69.6425 121.654 70.0225 122.147 70.2892C122.64 70.5559 123.194 70.6892 123.807 70.6892C124.34 70.6892 124.834 70.5692 125.287 70.3292C125.754 70.0892 126.147 69.7159 126.467 69.2092L128.387 70.3292C127.974 71.1292 127.367 71.7492 126.567 72.1892C125.78 72.6159 124.867 72.8292 123.827 72.8292ZM134.705 72.8292C133.532 72.8292 132.625 72.5292 131.985 71.9292C131.345 71.3159 131.025 70.4159 131.025 69.2292V59.6492H133.525V69.1692C133.525 69.6759 133.652 70.0692 133.905 70.3492C134.172 70.6292 134.538 70.7692 135.005 70.7692C135.565 70.7692 136.032 70.6225 136.405 70.3292L137.105 72.1092C136.812 72.3492 136.452 72.5292 136.025 72.6492C135.598 72.7692 135.158 72.8292 134.705 72.8292ZM129.265 64.0892V62.0892H136.385V64.0892H129.265ZM143.61 72.8292C142.517 72.8292 141.543 72.5959 140.69 72.1292C139.837 71.6492 139.163 70.9959 138.67 70.1692C138.177 69.3425 137.93 68.4025 137.93 67.3492C137.93 66.2825 138.177 65.3425 138.67 64.5292C139.163 63.7025 139.837 63.0559 140.69 62.5892C141.543 62.1225 142.517 61.8892 143.61 61.8892C144.717 61.8892 145.697 62.1225 146.55 62.5892C147.417 63.0559 148.09 63.6959 148.57 64.5092C149.063 65.3225 149.31 66.2692 149.31 67.3492C149.31 68.4025 149.063 69.3425 148.57 70.1692C148.09 70.9959 147.417 71.6492 146.55 72.1292C145.697 72.5959 144.717 72.8292 143.61 72.8292ZM143.61 70.6892C144.223 70.6892 144.77 70.5559 145.25 70.2892C145.73 70.0225 146.103 69.6359 146.37 69.1292C146.65 68.6225 146.79 68.0292 146.79 67.3492C146.79 66.6559 146.65 66.0625 146.37 65.5692C146.103 65.0625 145.73 64.6759 145.25 64.4092C144.77 64.1425 144.23 64.0092 143.63 64.0092C143.017 64.0092 142.47 64.1425 141.99 64.4092C141.523 64.6759 141.15 65.0625 140.87 65.5692C140.59 66.0625 140.45 66.6559 140.45 67.3492C140.45 68.0292 140.59 68.6225 140.87 69.1292C141.15 69.6359 141.523 70.0225 141.99 70.2892C142.47 70.5559 143.01 70.6892 143.61 70.6892Z" fill="#525557"/>
</svg>
