<svg width="32" height="32" viewBox="0 0 32 32" fill="none" xmlns="http://www.w3.org/2000/svg">
<path d="M12 2.66666H6.66667C5.19391 2.66666 4 3.86056 4 5.33332V10.6667C4 12.1394 5.19391 13.3333 6.66667 13.3333H12C13.4728 13.3333 14.6667 12.1394 14.6667 10.6667V5.33332C14.6667 3.86056 13.4728 2.66666 12 2.66666Z" fill="#870606"/>
<path d="M12 18.6666H6.66667C5.19391 18.6666 4 19.8605 4 21.3333V26.6666C4 28.1394 5.19391 29.3333 6.66667 29.3333H12C13.4728 29.3333 14.6667 28.1394 14.6667 26.6666V21.3333C14.6667 19.8605 13.4728 18.6666 12 18.6666Z" fill="#870606"/>
<path d="M21.3333 12C21.1579 12.001 20.9839 11.9674 20.8215 11.901C20.659 11.8347 20.5113 11.7369 20.3867 11.6133L17.72 8.94666C17.4689 8.69559 17.3279 8.35506 17.3279 7.99999C17.3279 7.64492 17.4689 7.3044 17.72 7.05333C17.9711 6.80225 18.3116 6.6612 18.6667 6.6612C19.0217 6.6612 19.3623 6.80225 19.6133 7.05333L21.3333 8.78666L25.72 4.38666C25.9711 4.13559 26.3116 3.99454 26.6667 3.99454C27.0217 3.99454 27.3623 4.13559 27.6133 4.38666C27.8644 4.63773 28.0055 4.97826 28.0055 5.33333C28.0055 5.6884 27.8644 6.02892 27.6133 6.27999L22.28 11.6133C22.1554 11.7369 22.0077 11.8347 21.8452 11.901C21.6828 11.9674 21.5088 12.001 21.3333 12ZM26 28.6667C25.8245 28.6677 25.6506 28.634 25.4881 28.5677C25.3257 28.5013 25.1779 28.4036 25.0533 28.28L18.3867 21.6133C18.1356 21.3623 17.9945 21.0217 17.9945 20.6667C17.9945 20.3116 18.1356 19.9711 18.3867 19.72C18.6377 19.4689 18.9783 19.3279 19.3333 19.3279C19.6884 19.3279 20.0289 19.4689 20.28 19.72L26.9467 26.3867C27.0716 26.5106 27.1708 26.6581 27.2385 26.8206C27.3062 26.983 27.3411 27.1573 27.3411 27.3333C27.3411 27.5093 27.3062 27.6836 27.2385 27.8461C27.1708 28.0086 27.0716 28.156 26.9467 28.28C26.8221 28.4036 26.6743 28.5013 26.5119 28.5677C26.3494 28.634 26.1755 28.6677 26 28.6667Z" fill="#870606"/>
<path d="M19.3333 28.6667C19.1579 28.6677 18.9839 28.6341 18.8215 28.5677C18.659 28.5013 18.5113 28.4036 18.3867 28.28C18.2617 28.1561 18.1625 28.0086 18.0948 27.8461C18.0271 27.6836 17.9923 27.5094 17.9923 27.3333C17.9923 27.1573 18.0271 26.983 18.0948 26.8206C18.1625 26.6581 18.2617 26.5106 18.3867 26.3867L25.0533 19.72C25.3044 19.4689 25.6449 19.3279 26 19.3279C26.3551 19.3279 26.6956 19.4689 26.9467 19.72C27.1977 19.9711 27.3388 20.3116 27.3388 20.6667C27.3388 21.0217 27.1977 21.3623 26.9467 21.6133L20.28 28.28C20.1554 28.4036 20.0077 28.5013 19.8452 28.5677C19.6828 28.6341 19.5088 28.6677 19.3333 28.6667Z" fill="#870606"/>
</svg>
