<svg width="32" height="32" viewBox="0 0 32 32" fill="none" xmlns="http://www.w3.org/2000/svg">
<path d="M6.9 16.65C6.9 21.7 11 25.75 16 25.75C21 25.75 25.1 21.65 25.1 16.65C25.1 11.6 21.05 7.5 16 7.5C10.95 7.5 6.9 11.6 6.9 16.65ZM15 16.15V11.3C15 10.75 15.45 10.3 16 10.3C16.55 10.3 17 10.8 17 11.3V15.85H19.9C20.45 15.85 20.9 16.3 20.9 16.85C20.9 17.4 20.4 17.85 19.9 17.85H16C15.45 17.85 15 17.4 15 16.85V16.15Z" fill="#693315"/>
<path d="M28.25 12.75C26.75 8.00002 22.55 4.60002 17.65 3.90002C17.7 3.75002 17.75 3.60002 17.75 3.50002C17.75 3.10002 17.5 2.75002 17.2 2.60002C16.8 2.40002 16.4 2.50002 16.05 2.80002L15 3.70002C14.85 3.85002 14.65 3.95002 14.55 4.10002C14.45 4.25002 14.4 4.45002 14.4 4.65002C14.4 5.10002 14.7 5.35002 14.95 5.70002C15.25 6.05002 15.55 6.45002 15.9 6.80002C16.45 7.45002 17.6 6.95002 17.6 6.15002V5.95002C21.15 6.50002 24.3 8.75002 25.9 12.05C27.7 15.8 27.1 20.5 24.4 23.65C21.7 26.85 17.35 28.25 13.3 27.2C9.3 26.15 6.25 22.85 5.45 18.85C4.4 13.85 7.2 8.85002 11.75 6.75002C12.25 6.55002 12.35 5.80002 12.1 5.40002C11.8 4.90002 11.25 4.80002 10.75 5.05002C6 7.20002 2.95 12.2 3.25 17.45C3.55 22.4 6.65 26.75 11.2 28.65C15.8 30.55 21.2 29.55 24.8 26.2C28.35 22.75 29.75 17.45 28.25 12.75Z" fill="#693315"/>
</svg>
